<mxfile host="localhost" modified="2020-05-11T12:01:47.624Z" agent="5.0 (Windows NT 10.0; Win64; x64) AppleWebKit/537.36 (KHTML, like Gecko) Code/1.45.0 Chrome/78.0.3904.130 Electron/7.2.4 Safari/537.36" etag="fvhEgoJbWrsaZSRK8krF" version="13.0.9">
    <diagram id="SmY9_sgU-Y70L0VoWaEG" name="Page-1">
        <mxGraphModel dx="1477" dy="1030" grid="1" gridSize="10" guides="1" tooltips="1" connect="1" arrows="1" fold="1" page="1" pageScale="1" pageWidth="827" pageHeight="1169" math="0" shadow="0">
            <root>
                <object label="" asdfasdf="asdfasd" id="0">
                    <mxCell/>
                </object>
                <mxCell id="1" parent="0"/>
                <mxCell id="3" value="Cart Table" style="text;strokeColor=none;fillColor=none;html=1;fontSize=24;fontStyle=1;verticalAlign=middle;align=center;rounded=0;" parent="1" vertex="1">
                    <mxGeometry x="211" y="240" width="100" height="40" as="geometry"/>
                </mxCell>
                <mxCell id="4" value="&lt;table border=&quot;1&quot; width=&quot;100%&quot; cellpadding=&quot;4&quot; style=&quot;width: 100% ; height: 100% ; border-collapse: collapse ; border: 1px solid rgb(151 , 208 , 119)&quot;&gt;&lt;tbody&gt;&lt;tr style=&quot;background-color: rgb(167 , 201 , 66)&quot;&gt;&lt;th align=&quot;left&quot;&gt;&lt;font color=&quot;#000000&quot;&gt;물리 이름&lt;/font&gt;&lt;/th&gt;&lt;th align=&quot;left&quot;&gt;&lt;font color=&quot;#000000&quot;&gt;형식&lt;/font&gt;&lt;/th&gt;&lt;th align=&quot;left&quot;&gt;&lt;font color=&quot;#000000&quot;&gt;논리 이름&lt;/font&gt;&lt;/th&gt;&lt;td&gt;&lt;font color=&quot;#000000&quot;&gt;비고&amp;nbsp; &amp;nbsp; &amp;nbsp; &amp;nbsp;&lt;/font&gt;&lt;/td&gt;&lt;/tr&gt;&lt;tr&gt;&lt;td&gt;&lt;font color=&quot;#000000&quot;&gt;cart_id&lt;/font&gt;&lt;/td&gt;&lt;td&gt;&lt;font color=&quot;#000000&quot;&gt;INT&lt;/font&gt;&lt;/td&gt;&lt;td&gt;&lt;font color=&quot;#000000&quot;&gt;카트 번호&lt;/font&gt;&lt;/td&gt;&lt;td&gt;&lt;font color=&quot;#000000&quot;&gt;NOT NULL, PK,AI&lt;/font&gt;&lt;/td&gt;&lt;/tr&gt;&lt;tr style=&quot;background-color: rgb(234 , 242 , 211)&quot;&gt;&lt;td&gt;&lt;font color=&quot;#000000&quot;&gt;delivery_id&lt;/font&gt;&lt;/td&gt;&lt;td&gt;&lt;font color=&quot;#000000&quot;&gt;INT&lt;/font&gt;&lt;/td&gt;&lt;td&gt;&lt;font color=&quot;#000000&quot;&gt;배달 ID&lt;/font&gt;&lt;/td&gt;&lt;td&gt;&lt;font color=&quot;#000000&quot;&gt;NOT NULL&lt;/font&gt;&lt;/td&gt;&lt;/tr&gt;&lt;tr style=&quot;background-color: rgb(234 , 242 , 211)&quot;&gt;&lt;td&gt;&lt;font color=&quot;#000000&quot;&gt;product_id&lt;/font&gt;&lt;/td&gt;&lt;td&gt;&lt;font color=&quot;#000000&quot;&gt;INT&lt;/font&gt;&lt;/td&gt;&lt;td&gt;&lt;font color=&quot;#000000&quot;&gt;상품 ID&lt;/font&gt;&lt;/td&gt;&lt;td&gt;&lt;font color=&quot;#000000&quot;&gt;NOT NULL&lt;/font&gt;&lt;/td&gt;&lt;/tr&gt;&lt;tr&gt;&lt;td&gt;&lt;font color=&quot;#000000&quot;&gt;amount&lt;/font&gt;&lt;/td&gt;&lt;td&gt;&lt;font color=&quot;#000000&quot;&gt;INT&lt;/font&gt;&lt;/td&gt;&lt;td&gt;&lt;font color=&quot;#000000&quot;&gt;상품 수량&lt;/font&gt;&lt;/td&gt;&lt;td&gt;&lt;font color=&quot;#000000&quot;&gt;NOT NULL&lt;/font&gt;&lt;/td&gt;&lt;/tr&gt;&lt;/tbody&gt;&lt;/table&gt;" style="text;html=1;strokeColor=#c0c0c0;fillColor=#ffffff;overflow=fill;rounded=0;align=left;" parent="1" vertex="1">
                    <mxGeometry x="10" y="290" width="510" height="160" as="geometry"/>
                </mxCell>
                <mxCell id="5" value="Delivery Table" style="text;strokeColor=none;fillColor=none;html=1;fontSize=24;fontStyle=1;verticalAlign=middle;align=center;rounded=0;" parent="1" vertex="1">
                    <mxGeometry x="140" y="20" width="100" height="40" as="geometry"/>
                </mxCell>
                <mxCell id="6" value="&lt;table border=&quot;1&quot; width=&quot;100%&quot; cellpadding=&quot;4&quot; style=&quot;width: 100% ; height: 100% ; border-collapse: collapse&quot;&gt;&lt;tbody&gt;&lt;tr style=&quot;background-color: #a7c942 ; color: #ffffff ; border: 1px solid #98bf21&quot;&gt;&lt;th align=&quot;left&quot;&gt;&lt;font color=&quot;#000000&quot;&gt;물리 이름&lt;/font&gt;&lt;/th&gt;&lt;th align=&quot;left&quot;&gt;&lt;font color=&quot;#000000&quot;&gt;형식&lt;/font&gt;&lt;/th&gt;&lt;th align=&quot;left&quot;&gt;&lt;font color=&quot;#000000&quot;&gt;논리 이름&lt;/font&gt;&lt;/th&gt;&lt;td&gt;&lt;font color=&quot;#000000&quot;&gt;비고&lt;/font&gt;&lt;/td&gt;&lt;/tr&gt;&lt;tr style=&quot;border: 1px solid #98bf21&quot;&gt;&lt;td&gt;&lt;font color=&quot;#000000&quot;&gt;delivery_id&lt;/font&gt;&lt;/td&gt;&lt;td&gt;&lt;font color=&quot;#000000&quot;&gt;INT&lt;/font&gt;&lt;/td&gt;&lt;td&gt;&lt;font color=&quot;#000000&quot;&gt;배달 ID&lt;/font&gt;&lt;/td&gt;&lt;td&gt;&lt;font color=&quot;#000000&quot;&gt;NOT NULL, PK,AI&lt;/font&gt;&lt;/td&gt;&lt;/tr&gt;&lt;tr style=&quot;background-color: #eaf2d3 ; border: 1px solid #98bf21&quot;&gt;&lt;td&gt;&lt;font color=&quot;#000000&quot;&gt;userid_id&lt;/font&gt;&lt;/td&gt;&lt;td&gt;&lt;font color=&quot;#000000&quot;&gt;INT&lt;/font&gt;&lt;/td&gt;&lt;td&gt;&lt;font color=&quot;#000000&quot;&gt;사용자 ID&lt;/font&gt;&lt;/td&gt;&lt;td&gt;&lt;font color=&quot;#000000&quot;&gt;NOT NULL&lt;/font&gt;&lt;/td&gt;&lt;/tr&gt;&lt;tr style=&quot;border: 1px solid #98bf21&quot;&gt;&lt;td&gt;&lt;font color=&quot;#000000&quot;&gt;market_id&lt;/font&gt;&lt;/td&gt;&lt;td&gt;&lt;font color=&quot;#000000&quot;&gt;INT&lt;/font&gt;&lt;/td&gt;&lt;td&gt;&lt;font color=&quot;#000000&quot;&gt;마트 ID&lt;/font&gt;&lt;/td&gt;&lt;td&gt;&lt;font color=&quot;#000000&quot;&gt;NOT NULL&lt;/font&gt;&lt;/td&gt;&lt;/tr&gt;&lt;tr style=&quot;background-color: #eaf2d3 ; border: 1px solid #98bf21&quot;&gt;&lt;td&gt;&lt;font color=&quot;#000000&quot;&gt;address&lt;/font&gt;&lt;/td&gt;&lt;td&gt;&lt;font color=&quot;#000000&quot;&gt;VARCHAR&lt;/font&gt;&lt;/td&gt;&lt;td&gt;&lt;font color=&quot;#000000&quot;&gt;사용자 배달 주소&lt;/font&gt;&lt;/td&gt;&lt;td&gt;&lt;font color=&quot;#000000&quot;&gt;NOT NULL&lt;/font&gt;&lt;/td&gt;&lt;/tr&gt;&lt;/tbody&gt;&lt;/table&gt;" style="text;html=1;strokeColor=#c0c0c0;fillColor=#ffffff;overflow=fill;rounded=0;align=left;" parent="1" vertex="1">
                    <mxGeometry x="10" y="90" width="360" height="110" as="geometry"/>
                </mxCell>
                <mxCell id="7" value="&lt;table border=&quot;1&quot; width=&quot;100%&quot; cellpadding=&quot;4&quot; style=&quot;width: 100% ; height: 100% ; border-collapse: collapse&quot;&gt;&lt;tbody&gt;&lt;tr style=&quot;background-color: #a7c942 ; color: #ffffff ; border: 1px solid #98bf21&quot;&gt;&lt;th align=&quot;left&quot;&gt;&lt;font color=&quot;#000000&quot;&gt;물리 이름&lt;/font&gt;&lt;/th&gt;&lt;th align=&quot;left&quot;&gt;&lt;font color=&quot;#000000&quot;&gt;형식&lt;/font&gt;&lt;/th&gt;&lt;th align=&quot;left&quot;&gt;&lt;font color=&quot;#000000&quot;&gt;논리 이름&lt;/font&gt;&lt;/th&gt;&lt;td&gt;&lt;font color=&quot;#000000&quot;&gt;비고&lt;/font&gt;&lt;/td&gt;&lt;/tr&gt;&lt;tr style=&quot;border: 1px solid #98bf21&quot;&gt;&lt;td&gt;&lt;font color=&quot;#000000&quot;&gt;product_id&lt;/font&gt;&lt;/td&gt;&lt;td&gt;&lt;font color=&quot;#000000&quot;&gt;INT&lt;/font&gt;&lt;/td&gt;&lt;td&gt;&lt;font color=&quot;#000000&quot;&gt;상품 ID&lt;/font&gt;&lt;/td&gt;&lt;td&gt;&lt;font color=&quot;#000000&quot;&gt;NOT NULL, PK,AI&lt;/font&gt;&lt;/td&gt;&lt;/tr&gt;&lt;tr style=&quot;background-color: #eaf2d3 ; border: 1px solid #98bf21&quot;&gt;&lt;td&gt;&lt;font color=&quot;#000000&quot;&gt;product_name&lt;/font&gt;&lt;/td&gt;&lt;td&gt;&lt;font color=&quot;#000000&quot;&gt;VARCHAR&lt;/font&gt;&lt;/td&gt;&lt;td&gt;&lt;font color=&quot;#000000&quot;&gt;상품 Name&lt;/font&gt;&lt;/td&gt;&lt;td&gt;&lt;font color=&quot;#000000&quot;&gt;NOT NULL&lt;/font&gt;&lt;/td&gt;&lt;/tr&gt;&lt;tr style=&quot;border: 1px solid #98bf21&quot;&gt;&lt;td&gt;&lt;font color=&quot;#000000&quot;&gt;product_decs&lt;/font&gt;&lt;/td&gt;&lt;td&gt;&lt;font color=&quot;#000000&quot;&gt;VARCHAR&lt;/font&gt;&lt;/td&gt;&lt;td&gt;&lt;font color=&quot;#000000&quot;&gt;상품 설명&lt;/font&gt;&lt;/td&gt;&lt;td&gt;&lt;font color=&quot;#000000&quot;&gt;NOT NULL&lt;/font&gt;&lt;/td&gt;&lt;/tr&gt;&lt;tr style=&quot;background-color: #eaf2d3 ; border: 1px solid #98bf21&quot;&gt;&lt;td&gt;&lt;font color=&quot;#000000&quot;&gt;product_price&lt;/font&gt;&lt;/td&gt;&lt;td&gt;&lt;font color=&quot;#000000&quot;&gt;INT&lt;/font&gt;&lt;/td&gt;&lt;td&gt;&lt;font color=&quot;#000000&quot;&gt;상품 가격&lt;/font&gt;&lt;/td&gt;&lt;td&gt;&lt;font color=&quot;#000000&quot;&gt;NOT NULL&lt;/font&gt;&lt;/td&gt;&lt;/tr&gt;&lt;tr&gt;&lt;td&gt;&lt;font color=&quot;#000000&quot;&gt;prodict_image&lt;/font&gt;&lt;/td&gt;&lt;td&gt;&lt;font color=&quot;#000000&quot;&gt;VARCHAR&lt;/font&gt;&lt;/td&gt;&lt;td&gt;&lt;font color=&quot;#000000&quot;&gt;상품 이미지 base64&lt;/font&gt;&lt;/td&gt;&lt;td&gt;&lt;font color=&quot;#000000&quot;&gt;NULL&lt;/font&gt;&lt;/td&gt;&lt;/tr&gt;&lt;/tbody&gt;&lt;/table&gt;" style="text;html=1;strokeColor=#c0c0c0;fillColor=#ffffff;overflow=fill;rounded=0;align=left;" parent="1" vertex="1">
                    <mxGeometry x="10" y="590" width="570" height="160" as="geometry"/>
                </mxCell>
                <mxCell id="8" value="Product Table" style="text;strokeColor=none;fillColor=none;html=1;fontSize=24;fontStyle=1;verticalAlign=middle;align=center;rounded=0;" parent="1" vertex="1">
                    <mxGeometry x="249" y="550" width="100" height="40" as="geometry"/>
                </mxCell>
                <mxCell id="9" value="&lt;table border=&quot;1&quot; width=&quot;100%&quot; cellpadding=&quot;4&quot; style=&quot;width: 100% ; height: 100% ; border-collapse: collapse&quot;&gt;&lt;tbody&gt;&lt;tr style=&quot;background-color: #a7c942 ; color: #ffffff ; border: 1px solid #98bf21&quot;&gt;&lt;th align=&quot;left&quot;&gt;&lt;font color=&quot;#000000&quot;&gt;물리 이름&lt;/font&gt;&lt;/th&gt;&lt;th align=&quot;left&quot;&gt;&lt;font color=&quot;#000000&quot;&gt;형식&lt;/font&gt;&lt;/th&gt;&lt;th align=&quot;left&quot;&gt;&lt;font color=&quot;#000000&quot;&gt;논리 이름&lt;/font&gt;&lt;/th&gt;&lt;td&gt;&lt;font color=&quot;#000000&quot;&gt;비고&lt;/font&gt;&lt;/td&gt;&lt;/tr&gt;&lt;tr style=&quot;border: 1px solid #98bf21&quot;&gt;&lt;td&gt;&lt;font color=&quot;#000000&quot;&gt;mart_id&lt;/font&gt;&lt;/td&gt;&lt;td&gt;&lt;font color=&quot;#000000&quot;&gt;INT&lt;/font&gt;&lt;/td&gt;&lt;td&gt;&lt;font color=&quot;#000000&quot;&gt;마트 ID&lt;/font&gt;&lt;/td&gt;&lt;td&gt;&lt;font color=&quot;#000000&quot;&gt;NOT NULL, PK,AI&lt;/font&gt;&lt;/td&gt;&lt;/tr&gt;&lt;tr style=&quot;background-color: #eaf2d3 ; border: 1px solid #98bf21&quot;&gt;&lt;td&gt;&lt;font color=&quot;#000000&quot;&gt;mart_name&lt;/font&gt;&lt;/td&gt;&lt;td&gt;&lt;font color=&quot;#000000&quot;&gt;VARCHAR&lt;/font&gt;&lt;/td&gt;&lt;td&gt;&lt;font color=&quot;#000000&quot;&gt;마트 Name&lt;/font&gt;&lt;/td&gt;&lt;td&gt;&lt;font color=&quot;#000000&quot;&gt;NOT NULL&lt;/font&gt;&lt;/td&gt;&lt;/tr&gt;&lt;tr style=&quot;border: 1px solid #98bf21&quot;&gt;&lt;td&gt;&lt;font color=&quot;#000000&quot;&gt;mart_address&lt;/font&gt;&lt;/td&gt;&lt;td&gt;&lt;font color=&quot;#000000&quot;&gt;VARCHAR&lt;/font&gt;&lt;/td&gt;&lt;td&gt;&lt;font color=&quot;#000000&quot;&gt;마트 주소&lt;/font&gt;&lt;/td&gt;&lt;td&gt;&lt;font color=&quot;#000000&quot;&gt;NOT NULL&lt;/font&gt;&lt;/td&gt;&lt;/tr&gt;&lt;tr style=&quot;background-color: #eaf2d3 ; border: 1px solid #98bf21&quot;&gt;&lt;td&gt;&lt;font color=&quot;#000000&quot;&gt;mart_desc&lt;/font&gt;&lt;/td&gt;&lt;td&gt;&lt;font color=&quot;#000000&quot;&gt;VARCHAR&lt;/font&gt;&lt;/td&gt;&lt;td&gt;&lt;font color=&quot;#000000&quot;&gt;마트 설명&lt;/font&gt;&lt;/td&gt;&lt;td&gt;&lt;font color=&quot;#000000&quot;&gt;NULL&lt;/font&gt;&lt;/td&gt;&lt;/tr&gt;&lt;tr&gt;&lt;td&gt;&lt;font color=&quot;#000000&quot;&gt;mart_image&lt;/font&gt;&lt;/td&gt;&lt;td&gt;&lt;font color=&quot;#000000&quot;&gt;VARCHAR&lt;/font&gt;&lt;/td&gt;&lt;td&gt;&lt;font color=&quot;#000000&quot;&gt;마트 이미지 base64&lt;/font&gt;&lt;/td&gt;&lt;td&gt;&lt;font color=&quot;#000000&quot;&gt;NULL&lt;/font&gt;&lt;/td&gt;&lt;/tr&gt;&lt;tr&gt;&lt;td&gt;&lt;font color=&quot;#000000&quot;&gt;mart_password&lt;/font&gt;&lt;/td&gt;&lt;td&gt;&lt;font color=&quot;#000000&quot;&gt;VARCHAR&lt;/font&gt;&lt;/td&gt;&lt;td&gt;&lt;font color=&quot;#000000&quot;&gt;마트 비밀번호&lt;/font&gt;&lt;/td&gt;&lt;td&gt;&lt;font color=&quot;#000000&quot;&gt;NOT NULL&lt;/font&gt;&lt;/td&gt;&lt;/tr&gt;&lt;tr&gt;&lt;td&gt;a&lt;/td&gt;&lt;td&gt;&lt;br&gt;&lt;/td&gt;&lt;td&gt;&lt;br&gt;&lt;/td&gt;&lt;td&gt;&lt;br&gt;&lt;/td&gt;&lt;/tr&gt;&lt;/tbody&gt;&lt;/table&gt;" style="text;html=1;strokeColor=#c0c0c0;fillColor=#ffffff;overflow=fill;rounded=0;align=left;" parent="1" vertex="1">
                    <mxGeometry x="10" y="850" width="645" height="270" as="geometry"/>
                </mxCell>
                <mxCell id="10" value="Mart Table" style="text;strokeColor=none;fillColor=none;html=1;fontSize=24;fontStyle=1;verticalAlign=middle;align=center;rounded=0;" parent="1" vertex="1">
                    <mxGeometry x="282.5" y="800" width="100" height="40" as="geometry"/>
                </mxCell>
            </root>
        </mxGraphModel>
    </diagram>
</mxfile>